<?xml version="1.0" encoding="UTF-8"?>
<svg xmlns="http://www.w3.org/2000/svg" xmlns:xlink="http://www.w3.org/1999/xlink" width="25pt" height="25pt" viewBox="0 0 25 25" version="1.1">
<g id="surface1">
<path style=" stroke:none;fill-rule:nonzero;fill:rgb(0%,46.666667%,71.764706%);fill-opacity:1;" d="M 23.105469 0 L 2.300781 0 C 1.027344 0 0 1.027344 0 2.300781 L 0 23.105469 C 0 24.378906 1.027344 25.40625 2.300781 25.40625 L 23.105469 25.40625 C 24.378906 25.40625 25.40625 24.378906 25.40625 23.105469 L 25.40625 2.300781 C 25.40625 1.027344 24.378906 0 23.105469 0 Z M 7.859375 21.9375 C 7.859375 22.304688 7.558594 22.605469 7.195312 22.605469 L 4.347656 22.605469 C 3.976562 22.605469 3.675781 22.304688 3.675781 21.9375 L 3.675781 10 C 3.675781 9.636719 3.976562 9.332031 4.347656 9.332031 L 7.195312 9.332031 C 7.558594 9.332031 7.859375 9.636719 7.859375 10 Z M 5.769531 8.210938 C 4.277344 8.210938 3.0625 6.996094 3.0625 5.503906 C 3.0625 4.007812 4.277344 2.800781 5.769531 2.800781 C 7.265625 2.800781 8.472656 4.007812 8.472656 5.503906 C 8.472656 6.996094 7.265625 8.210938 5.769531 8.210938 Z M 22.738281 21.992188 C 22.738281 22.328125 22.464844 22.605469 22.121094 22.605469 L 19.070312 22.605469 C 18.726562 22.605469 18.453125 22.328125 18.453125 21.992188 L 18.453125 16.394531 C 18.453125 15.558594 18.699219 12.734375 16.269531 12.734375 C 14.386719 12.734375 14.007812 14.667969 13.929688 15.535156 L 13.929688 21.992188 C 13.929688 22.328125 13.65625 22.605469 13.3125 22.605469 L 10.359375 22.605469 C 10.023438 22.605469 9.746094 22.328125 9.746094 21.992188 L 9.746094 9.945312 C 9.746094 9.613281 10.023438 9.332031 10.359375 9.332031 L 13.3125 9.332031 C 13.65625 9.332031 13.929688 9.613281 13.929688 9.945312 L 13.929688 10.992188 C 14.628906 9.941406 15.667969 9.136719 17.875 9.136719 C 22.765625 9.136719 22.738281 13.703125 22.738281 16.214844 Z M 22.738281 21.992188 "/>
</g>
</svg>
