<svg xmlns="http://www.w3.org/2000/svg" width="25pt" height="25pt" viewBox="0 0 25 25"><path d="M23.105 0H2.301A2.297 2.297 0 000 2.3v20.805a2.297 2.297 0 002.3 2.301h20.805a2.297 2.297 0 002.301-2.3V2.3a2.297 2.297 0 00-2.3-2.301zM7.86 21.938a.67.67 0 01-.664.667H4.348a.671.671 0 01-.672-.668V10c0-.363.3-.668.672-.668h2.847c.364 0 .664.305.664.668zM5.77 8.21a2.705 2.705 0 110-5.41 2.699 2.699 0 012.704 2.703A2.705 2.705 0 015.77 8.21zm16.97 13.781a.615.615 0 01-.618.613h-3.05a.615.615 0 01-.618-.613v-5.597c0-.836.246-3.66-2.183-3.66-1.883 0-2.262 1.933-2.34 2.8v6.457a.615.615 0 01-.617.613H10.36a.617.617 0 01-.613-.613V9.945a.62.62 0 01.613-.613h2.954c.343 0 .617.281.617.613v1.047c.699-1.05 1.738-1.855 3.945-1.855 4.89 0 4.863 4.566 4.863 7.078zm0 0" fill="#0077b7" id="surface1"/></svg>